<svg width="24" height="24" version="1.1" viewBox="0 0 6.35 6.35" xmlns="http://www.w3.org/2000/svg"><path transform="scale(.26458)" d="m4.1406 7.7637c-0.19649-0.0035-0.4448 0.01991-0.64844 0.125-0.34032 0.17563-0.57617 0.58008-0.57617 0.58008l-2.3359 5.7285s-0.02949 1.0984 0.26758 1.5176c0.30446 0.4296 1.3114 0.76049 1.3867 0.78516l-1.6992 0.0625v1.6973l3.3047 0.042968 1.7852 0.9375 13.08-0.042968 2.4199-5.2773a2.6517 2.6517 0 0 0 2.2344-2.6191 2.6517 2.6517 0 0 0-2.6504-2.6504 2.6517 2.6517 0 0 0-0.05859 0 2.6517 2.6517 0 0 0-2.4355 1.752h-5.5371v0.84766l5.3789 0.03906a2.6517 2.6517 0 0 0 0 0.01172 2.6517 2.6517 0 0 0 1.3984 2.3359l-1.9102 3.8184-6.1699-0.048828c0.15365-0.53698-0.34766-0.97852-0.34766-0.97852l-3.6172-2.6328-3.6602-0.17969 2.5898-3.4375 4.5977 1.1172s0.83354 0.10457 1.0273-0.66992c0.15196-0.60727-0.58008-1.0273-0.58008-1.0273l-6.9023-1.8008s-0.14531-0.029701-0.3418-0.033203zm16.631 2.4648a1.0102 1.0102 0 0 1 1.0098 1.0098 1.0102 1.0102 0 0 1-1.0098 1.0098 1.0102 1.0102 0 0 1-1.0098-1.0098 1.0102 1.0102 0 0 1 1.0098-1.0098zm-14.031 5.8438 1.7402 1.3125-2.4531-0.01953-1.7871-0.9375-1.6719 0.06055zm0.89904-9.9482a1.7678 1.7678 0 0 1-1.7678 1.7678 1.7678 1.7678 0 0 1-1.7678-1.7678 1.7678 1.7678 0 0 1 1.7678-1.7678 1.7678 1.7678 0 0 1 1.7678 1.7678z" fill="#000000" stop-color="#000000"/></svg>
