<?xml version="1.0" encoding="UTF-8" standalone="no"?>
<svg
   xmlns:dc="http://purl.org/dc/elements/1.1/"
   xmlns:cc="http://creativecommons.org/ns#"
   xmlns:rdf="http://www.w3.org/1999/02/22-rdf-syntax-ns#"
   xmlns:svg="http://www.w3.org/2000/svg"
   xmlns="http://www.w3.org/2000/svg"
   xmlns:sodipodi="http://sodipodi.sourceforge.net/DTD/sodipodi-0.dtd"
   xmlns:inkscape="http://www.inkscape.org/namespaces/inkscape"
   version="1.1"
   id="Capa_1"
   x="0px"
   y="0px"
   viewBox="0 0 23.999999 23.999999"
   xml:space="preserve"
   sodipodi:docname="rowing-machine2.svg"
   inkscape:version="1.0beta1 (32d4812, 2019-09-19)"
   width="24"
   height="24"><metadata
   id="metadata94">
  <rdf:RDF>
    <cc:Work
   rdf:about="">
      <dc:format>image/svg+xml</dc:format>

      <dc:type
   rdf:resource="http://purl.org/dc/dcmitype/StillImage" />

      <dc:title></dc:title>

    </cc:Work>

  </rdf:RDF>

</metadata>

<defs
   id="defs92" />

<sodipodi:namedview
   pagecolor="#ffffff"
   bordercolor="#666666"
   inkscape:document-rotation="0"
   borderopacity="1"
   objecttolerance="10"
   gridtolerance="10"
   guidetolerance="10"
   inkscape:pageopacity="0"
   inkscape:pageshadow="2"
   inkscape:window-width="1440"
   inkscape:window-height="800"
   id="namedview90"
   showgrid="false"
   inkscape:zoom="15.839192"
   inkscape:cx="12.646815"
   inkscape:cy="18.331403"
   inkscape:window-x="0"
   inkscape:window-y="25"
   inkscape:window-maximized="0"
   inkscape:current-layer="Capa_1"
   inkscape:pagecheckerboard="true" />












<path
   d="m 18.448684,4.1744673 -0.02232,0.9151779 c 0,0 -2.27395,0.042027 -3.883928,1.5848214 -1.012246,0.9700056 -1.272322,3.7053574 -1.272322,3.7053574 l -0.982143,-0.02232 c 0,0 0.343154,-2.9807045 1.584822,-4.3750005 1.101042,-1.2363841 3.206409,-1.8631826 4.575891,-1.8080362 z m 2.220959,11.0487467 -0.446429,-0.870535 c 0,0 1.470379,-0.823277 2.1875,-2.03125 0.715683,-1.20555 0.602679,-2.633929 0.602679,-2.633929 l 0.982143,0.022322 c 0,0 0.05565,1.753357 -0.803572,3.191965 -0.833089,1.394859 -2.522321,2.321427 -2.522321,2.321427 z m -13.6607144,-0.513393 0.3794643,0.870536 6.7633931,-3.102678 -0.446429,-0.9375 z M 18.160156,5.7578125 a 4.2479248,4.2479234 0 0 0 -4.248047,4.2480465 4.2479248,4.2479234 0 0 0 1.783203,3.458985 L 8.8398438,16.71875 6.9824219,16.703125 C 7.0124829,16.37235 7.0519687,15.719854 6.8085938,15.378906 6.2147131,14.54693 5.0393089,14.138142 4.0175781,14.107422 c -0.97233,-0.02923 -2.11403,0.289977 -2.7226562,1.048828 -0.30167626,0.376138 -0.2873063,1.149093 -0.2714844,1.5 l -0.59960938,-0.0039 -0.0449219,0.958984 1.94531258,0.03125 1.21875,3.34961 -3.52148445,-0.0098 v 1.027344 H 23.302734 V 21.0488 l -4.689453,-0.01367 1.089844,-7.072265 a 4.2479248,4.2479234 0 0 0 2.705078,-3.957032 4.2479248,4.2479234 0 0 0 -4.248047,-4.2480465 z m -0.0078,1.0429687 a 3.2484102,3.2484093 0 0 1 3.248047,3.2480468 3.2484102,3.2484093 0 0 1 -3.248047,3.248047 3.2484102,3.2484093 0 0 1 -3.248047,-3.248047 3.2484102,3.2484093 0 0 1 3.248047,-3.2480468 z m -0.939453,7.3457028 a 4.2479248,4.2479234 0 0 0 0.947265,0.107422 4.2479248,4.2479234 0 0 0 0.476563,-0.02734 l -0.578125,3.988282 z m -0.984375,0.183594 1.34375,6.703125 -13.2773441,-0.03906 1.2539062,-3.302735 3.46875,0.05469 z M 4.0839844,15.066406 c 0.6522499,0.0041 1.4469966,0.166867 1.8320312,0.69336 0.1693266,0.231535 0.1399564,0.64511 0.1035156,0.9375 l -4.0429687,-0.0332 C 1.9576955,16.35682 1.9620742,15.988698 2.1210938,15.78125 2.5449527,15.228307 3.38729,15.061992 4.0839844,15.066406 Z M 3.34375,17.658203 4.3769531,17.673828 3.8847656,19.0625 Z m 16.320693,-7.528742 a 1.4992663,1.4992659 0 0 1 -1.499267,1.499266 1.4992663,1.4992659 0 0 1 -1.499266,-1.499266 1.4992663,1.4992659 0 0 1 1.499266,-1.4992656 1.4992663,1.4992659 0 0 1 1.499267,1.4992656"
   style="font-variation-settings:normal;opacity:1;vector-effect:none;fill:#fe0000;fill-opacity:1;stop-color:#000000;stop-opacity:1"
   id="path2292-7" />
</svg>
